<?xml version="1.0" encoding="UTF-8"?>
<svg width="700px" height="700px" viewBox="0 0 700 700" version="1.1" xmlns="http://www.w3.org/2000/svg" xmlns:xlink="http://www.w3.org/1999/xlink">
    <!-- Generator: Sketch 51.2 (57519) - http://www.bohemiancoding.com/sketch -->
    <title>Artboard</title>
    <desc>Created with Sketch.</desc>
    <defs></defs>
    <g id="Artboard" stroke="none" stroke-width="1" fill="none" fill-rule="evenodd">
        <g id="favicon" transform="translate(0.000000, 53.000000)" fill="#1DA9A2">
            <path d="M700,595 L464.289994,595 C428.779531,540.489509 396.764672,494.925013 368.244458,458.305144 C339.724243,421.685276 303.235693,375.701475 258.777711,320.352361 L236.968244,320.352361 L236.968244,507.364341 C236.968244,517.427816 238.785682,525.953688 242.420611,532.942213 C246.05554,539.930737 253.32529,545.80101 264.230078,550.553206 C269.263057,552.789534 276.742511,555.025829 286.668664,557.262156 C296.594817,559.498484 306.45092,561.175705 316.237268,562.293869 L316.237268,595 L0,595 L0,562.293869 C7.54946854,561.734787 18.2443886,560.896177 32.0850809,559.778013 C45.9257732,558.659849 55.6420731,556.982628 61.234272,554.7463 C71.3002301,550.832726 78.2903739,545.381759 82.2049131,538.393235 C86.1194524,531.40471 88.0766926,522.599301 88.0766926,511.976744 L88.0766926,90.1515152 C88.0766926,80.3675809 86.3990581,72.1212457 83.0437388,65.4122622 C79.6884194,58.7032786 72.4186699,52.6932377 61.234272,47.3819591 C52.5663637,43.4683854 42.081148,40.2537124 29.7783104,37.7378436 C17.4754727,35.2219747 7.54946854,33.544754 0,32.7061311 L0,0 L326.722588,0 L326.722588,32.7061311 C318.05468,33.544754 307.639366,34.7327854 295.476333,36.2702607 C283.3133,37.8077361 272.897986,39.9741462 264.230078,42.769556 C253.32529,46.4035888 246.05554,52.1340929 242.420611,59.9612403 C238.785682,67.7883877 236.968244,76.4540281 236.968244,85.9584214 L236.968244,286.388302 L254.583583,286.388302 C276.393159,266.540892 301.837282,242.640497 330.916717,214.686399 C359.996151,186.732301 382.504414,163.810284 398.442181,145.919662 C420.810977,121.040515 437.237815,101.333171 447.723188,86.7970402 C458.208561,72.2609092 463.451168,59.6817538 463.451168,49.0591966 C463.451168,44.307 458.418265,40.6730217 448.352307,38.1571529 C438.286349,35.6412841 422.908032,33.824295 402.216896,32.7061311 L402.216896,0 L660.994608,0 L660.994608,32.7061311 C629.678294,36.0606228 603.395353,41.7212428 582.144997,49.6881607 C560.894641,57.6550786 539.784407,71.0029601 518.813661,89.7322058 C488.895397,116.56814 464.220189,139.839577 444.787298,159.547216 C425.354407,179.254855 400.399593,204.48305 369.922109,235.232558 C396.764664,267.938853 429.059128,307.982497 466.806471,355.364693 C504.553814,402.746889 542.160787,448.940343 579.62852,493.946441 C589.135258,505.407621 600.039883,516.37944 612.34272,526.862227 C624.645558,537.345014 638.206437,545.801001 653.025764,552.230444 C660.016013,555.305395 667.984777,557.681457 676.932295,559.358703 C685.879813,561.035949 693.568971,562.014328 700,562.293869 L700,595 Z" id="K"></path>
        </g>
    </g>
</svg>