<?xml version="1.0" encoding="UTF-8"?>
<svg width="53px" height="45px" viewBox="0 0 53 45" version="1.1" xmlns="http://www.w3.org/2000/svg" xmlns:xlink="http://www.w3.org/1999/xlink">
    <!-- Generator: Sketch 51.1 (57501) - http://www.bohemiancoding.com/sketch -->
    <title>logo3</title>
    <desc>Created with Sketch.</desc>
    <defs></defs>
    <g id="Page-1" stroke="none" stroke-width="1" fill="none" fill-rule="evenodd">
        <g id="logo3" fill="#1DA9A2">
            <path d="M52.15625,44.34375 L34.59375,44.34375 C31.9479034,40.2812297 29.5625106,36.8854303 27.4375,34.15625 C25.3124894,31.4270697 22.5937666,28.0000206 19.28125,23.875 L17.65625,23.875 L17.65625,37.8125 C17.65625,38.5625037 17.7916653,39.1979141 18.0625,39.71875 C18.3333347,40.2395859 18.8749959,40.6770816 19.6875,41.03125 C20.0625019,41.1979175 20.619788,41.3645825 21.359375,41.53125 C22.098962,41.6979175 22.8333297,41.8229162 23.5625,41.90625 L23.5625,44.34375 L0,44.34375 L0,41.90625 C0.562502812,41.8645831 1.35936984,41.8020838 2.390625,41.71875 C3.42188016,41.6354162 4.14583125,41.5104175 4.5625,41.34375 C5.31250375,41.0520819 5.83333187,40.6458359 6.125,40.125 C6.41666813,39.6041641 6.5625,38.9479206 6.5625,38.15625 L6.5625,6.71875 C6.5625,5.98957969 6.43750125,5.3750025 6.1875,4.875 C5.93749875,4.3749975 5.3958375,3.92708531 4.5625,3.53125 C3.91666344,3.23958187 3.13542125,3.00000094 2.21875,2.8125 C1.30207875,2.62499906 0.562502812,2.50000031 0,2.4375 L0,0 L24.34375,0 L24.34375,2.4375 C23.6979134,2.50000031 22.9218795,2.58854109 22.015625,2.703125 C21.1093705,2.81770891 20.3333366,2.97916563 19.6875,3.1875 C18.8749959,3.45833469 18.3333347,3.88541375 18.0625,4.46875 C17.7916653,5.05208625 17.65625,5.69791313 17.65625,6.40625 L17.65625,21.34375 L18.96875,21.34375 C20.5937581,19.8645759 22.4895725,18.0833437 24.65625,16 C26.8229275,13.9166563 28.4999941,12.20834 29.6875,10.875 C31.354175,9.02082406 32.5781211,7.55208875 33.359375,6.46875 C34.1406289,5.38541125 34.53125,4.44792062 34.53125,3.65625 C34.53125,3.30208156 34.1562538,3.03125094 33.40625,2.84375 C32.6562462,2.65624906 31.5104244,2.52083375 29.96875,2.4375 L29.96875,0 L49.25,0 L49.25,2.4375 C46.916655,2.68750125 44.9583412,3.10937203 43.375,3.703125 C41.7916588,4.29687797 40.2187578,5.29165969 38.65625,6.6875 C36.4270722,8.68751 34.5885489,10.4218677 33.140625,11.890625 C31.6927011,13.3593823 29.8333447,15.2395719 27.5625,17.53125 C29.56251,19.9687622 31.9687359,22.9531073 34.78125,26.484375 C37.5937641,30.0156427 40.3958194,33.4583166 43.1875,36.8125 C43.8958369,37.6666709 44.7083288,38.4843711 45.625,39.265625 C46.5416712,40.0468789 47.5520778,40.6770809 48.65625,41.15625 C49.1770859,41.3854178 49.77083,41.5624994 50.4375,41.6875 C51.10417,41.8125006 51.6770809,41.8854166 52.15625,41.90625 L52.15625,44.34375 Z" id="K"></path>
        </g>
    </g>
</svg>